<?xml version="1.0" encoding="UTF-8"?>
<svg id="Camada_1" xmlns="http://www.w3.org/2000/svg" xmlns:xlink="http://www.w3.org/1999/xlink" viewBox="0 0 124.9 135.13">
  <defs>
    <style>
      .cls-1 {
        fill: url(#Gradiente_sem_nome_2);
      }
    </style>
    <linearGradient id="Gradiente_sem_nome_2" data-name="Gradiente sem nome 2" x1="62.31" y1="133.29" x2="62.31" y2="-1.84" gradientTransform="translate(.14 133.29) scale(1 -1)" gradientUnits="userSpaceOnUse">
      <stop offset="0" stop-color="#81ba47"/>
      <stop offset="1" stop-color="#1ba650"/>
    </linearGradient>
  </defs>
  <path class="cls-1" d="M80.04,135.13c-4.23,0-8.3-1.44-11.64-4.12l-.49-.36c-6.41-5.11-8.9-13.85-6.21-21.71l8.21-23.69c2.45-7.05-1.18-14.75-8.01-17.23-3.92-1.4-8.25-.86-11.68,1.49l-20.62,13.9c-8.63,6.01-20.38,3.76-26.32-5.07-5.87-8.83-3.67-20.85,4.96-26.91.44-.29.85-.59,1.29-.83L86.72,3.63c12.01-7.3,27.52-3.27,34.64,9.03,3.58,6.22,4.52,13.69,2.49,20.56l-2.78,9.57c-.49,1.53-2.09,2.39-3.58,1.89-1.45-.5-2.29-2.05-1.89-3.54l2.78-9.57c3.09-10.58-2.78-21.75-13.13-24.88-5.23-1.6-10.88-.86-15.6,1.98L12.39,55.57c-6.3,3.78-8.34,12.07-4.63,18.51.85,1.44,1.94,2.72,3.23,3.76,4.47,3.58,10.68,3.83,15.4.61l20.58-13.9c8.74-5.86,20.47-3.33,26.19,5.61,3.23,5.02,3.98,11.33,2.02,17.03l-8.19,23.69c-1.89,5.47-.11,11.62,4.38,15.16l.49.36c5.76,4.57,14.06,3.54,18.53-2.34,1-1.33,1.78-2.84,2.25-4.46l23.18-79.32c.4-1.58,1.98-2.48,3.52-2.05,1.53.41,2.42,2.03,2.02,3.58v.11l-23.18,79.32c-2.38,8.2-9.74,13.8-18.13,13.8v.09Z"/>
</svg>